<?xml version="1.0" encoding="UTF-8" standalone="no"?>
<!-- Created with Inkscape (http://www.inkscape.org/) -->

<svg
   width="1024"
   height="1024"
   viewBox="0 0 1024 1024"
   version="1.1"
   id="svg896"
   xmlns="http://www.w3.org/2000/svg"
   xmlns:svg="http://www.w3.org/2000/svg">
  <defs
     id="defs893" />
  <g
     id="layer1">
    <circle
       style="fill:#000000;fill-opacity:1;stroke-width:10;stroke-linecap:round;stroke-linejoin:round"
       id="path1071"
       cx="512"
       cy="512"
       r="512" />
    <ellipse
       style="fill:#f9b6a6;fill-opacity:1;stroke-width:13.3333;stroke-linecap:round;stroke-linejoin:round"
       id="path14045"
       cx="271.10834"
       cy="672"
       rx="79.108353"
       ry="128" />
    <circle
       style="fill:#f9b6a6;fill-opacity:1;stroke-width:11;stroke-linecap:round;stroke-linejoin:round"
       id="path931"
       cx="576"
       cy="704"
       r="320" />
    <path
       id="circle1755"
       style="fill:#FFF070;fill-opacity:1;stroke-width:9.18746;stroke-linecap:round;stroke-linejoin:round"
       d="M 503.3536,161.5813 A 320.72585,320.72585 0 0 0 227.77085,487.49394 374.18016,374.18016 0 0 1 518.09776,267.46833 374.18016,374.18016 0 0 1 858.3431,400 320.72585,320.72585 0 0 0 503.3536,161.5813 Z" />
    <circle
       style="fill:#FFF070;fill-opacity:1;stroke-width:20;stroke-linecap:round;stroke-linejoin:round"
       id="path1919"
       cx="256"
       cy="800"
       r="64" />
    <path
       id="circle13981"
       style="fill:#ee988a;fill-opacity:1;stroke-width:11;stroke-linecap:round;stroke-linejoin:round"
       d="M 782.04883,459.26172 A 352,352 0 0 1 832,640 352,352 0 0 1 480,992 352,352 0 0 1 431.00586,988.49609 320,320 0 0 0 576,1024 320,320 0 0 0 896,704 320,320 0 0 0 782.04883,459.26172 Z" />
  </g>
</svg>
