<svg width="20" height="16" viewBox="0 0 20 16" fill="none" xmlns="http://www.w3.org/2000/svg">
<path d="M9.26 11C9.08412 10.6939 8.99239 10.3467 8.99415 9.99364C8.99591 9.6406 9.09108 9.29432 9.27 8.98998C10.0443 8.92698 10.764 8.56606 11.2776 7.98316C11.7912 7.40027 12.0587 6.64087 12.0237 5.86478C11.9887 5.08868 11.654 4.35642 11.09 3.8221C10.5261 3.28778 9.77685 2.99307 9 2.99998H5C4.20435 2.99998 3.44129 3.31605 2.87868 3.87866C2.31607 4.44127 2 5.20433 2 5.99998C2 6.79563 2.31607 7.55869 2.87868 8.1213C3.44129 8.68391 4.20435 8.99998 5 8.99998H5.08C4.96923 9.66205 4.96923 10.3379 5.08 11H5C3.67392 11 2.40215 10.4732 1.46447 9.53552C0.526784 8.59783 0 7.32607 0 5.99998C0 4.6739 0.526784 3.40213 1.46447 2.46445C2.40215 1.52677 3.67392 0.999983 5 0.999983H9C10.3261 0.965505 11.6115 1.45922 12.5736 2.37253C13.5357 3.28583 14.0955 4.5439 14.13 5.86998C14.1645 7.19607 13.6708 8.48153 12.7575 9.44359C11.8442 10.4057 10.5861 10.9655 9.26 11ZM10.74 4.99998C10.9159 5.30609 11.0076 5.6533 11.0058 6.00633C11.0041 6.35936 10.9089 6.70564 10.73 7.00998C9.95568 7.07298 9.23599 7.43391 8.72239 8.0168C8.2088 8.5997 7.94135 9.3591 7.97633 10.1352C8.01131 10.9113 8.346 11.6435 8.90995 12.1779C9.47391 12.7122 10.2231 13.0069 11 13H15C15.7956 13 16.5587 12.6839 17.1213 12.1213C17.6839 11.5587 18 10.7956 18 9.99998C18 9.20433 17.6839 8.44127 17.1213 7.87866C16.5587 7.31605 15.7956 6.99998 15 6.99998H14.92C15.0308 6.33792 15.0308 5.66205 14.92 4.99998H15C16.3261 4.99998 17.5979 5.52677 18.5355 6.46445C19.4732 7.40213 20 8.6739 20 9.99998C20 11.3261 19.4732 12.5978 18.5355 13.5355C17.5979 14.4732 16.3261 15 15 15H11C10.3434 15.0171 9.68985 14.9046 9.07669 14.6691C8.46353 14.4336 7.90275 14.0797 7.42639 13.6274C6.46433 12.7141 5.90448 11.4561 5.87 10.13C5.83552 8.8039 6.32924 7.51843 7.24254 6.55637C8.15584 5.59431 9.41392 5.03446 10.74 4.99998Z" fill="#D1D5DE"/>
</svg>
