<?xml version="1.0" encoding="UTF-8" standalone="no"?>
<!-- Created with Inkscape (http://www.inkscape.org/) -->

<svg
   width="1024"
   height="1024"
   viewBox="0 0 1024 1024"
   version="1.1"
   id="svg830"
   inkscape:version="1.1.2 (0a00cf5339, 2022-02-04)"
   sodipodi:docname="icons.svg"
   xmlns:inkscape="http://www.inkscape.org/namespaces/inkscape"
   xmlns:sodipodi="http://sodipodi.sourceforge.net/DTD/sodipodi-0.dtd"
   xmlns="http://www.w3.org/2000/svg"
   xmlns:svg="http://www.w3.org/2000/svg">
  <sodipodi:namedview
     id="namedview832"
     pagecolor="#505050"
     bordercolor="#ffffff"
     borderopacity="1"
     inkscape:pageshadow="0"
     inkscape:pageopacity="0"
     inkscape:pagecheckerboard="1"
     inkscape:document-units="px"
     showgrid="true"
     units="px"
     scale-x="1024"
     inkscape:snap-bbox="true"
     inkscape:snap-nodes="false"
     inkscape:bbox-nodes="true"
     inkscape:zoom="0.056568542"
     inkscape:cx="-1104.8543"
     inkscape:cy="-698.26795"
     inkscape:window-width="1280"
     inkscape:window-height="656"
     inkscape:window-x="0"
     inkscape:window-y="27"
     inkscape:window-maximized="1"
     inkscape:current-layer="layer1">
    <inkscape:grid
       type="xygrid"
       id="grid891"
       empspacing="4" />
  </sodipodi:namedview>
  <defs
     id="defs827" />
  <g
     inkscape:label="Layer 1"
     inkscape:groupmode="layer"
     id="layer1">
    <g
       id="g2761"
       transform="matrix(9.765625e-4,0,0,9.765625e-4,-1152,0)">
      <rect
         style="fill:#393b41;fill-opacity:1;stroke-width:10240;stroke-linecap:round;stroke-linejoin:round"
         id="rect2092"
         width="1048576"
         height="1048576"
         x="0"
         y="0" />
      <path
         fill="#ffffff"
         d="M 196608,819199.99 H 0 L 131072,229376 H 360448 L 524287.99,637726.72 685608.96,231905.28 917504,229376 1048576,819199.99 H 851967.99 L 786432,557056 688127.99,819199.99 H 360448 L 262144,557056 Z"
         id="path2"
         style="stroke-width:1024"
         sodipodi:nodetypes="cccccccccccccc" />
      <path
         fill="#ff6b6b"
         d="M 163840,98304 H 393216 L 524287.99,393216 655360,98304 H 884736 L 622591.99,622591.99 v 327680 H 425984 v -327680 z"
         id="path4"
         style="stroke-width:1024"
         sodipodi:nodetypes="cccccccccc" />
    </g>
    <g
       id="g1777"
       transform="matrix(9.765625e-4,0,0,9.765625e-4,0,0)">
      <path
         id="circle3005"
         style="color:#000000;fill:#fdffff;fill-opacity:1;stroke-width:0.000976562;stroke-linecap:round;stroke-linejoin:round;-inkscape-stroke:none"
         d="m 656,160 c -48.32543,0 -96.18125,9.51838 -140.82812,28.01172 C 470.525,206.50506 429.9564,233.61392 395.78516,267.78516 361.61392,301.9564 334.50506,342.525 316.01172,387.17188 297.51838,431.81875 288,479.67457 288,528 c 0,48.32543 9.51838,96.18125 28.01172,140.82812 1.35283,3.26602 2.84855,6.46213 4.29297,9.6836 C 335.86062,683.42278 351.63139,688 368,688 c 21.01303,0 41.81501,-4.13835 61.22852,-12.17969 19.41351,-8.04134 37.04974,-19.82514 51.9082,-34.68359 0.0844,-0.0844 0.11302,-0.2103 0.19726,-0.29492 -6.79398,-10.51635 -12.68555,-21.62103 -17.5,-33.24414 C 453.38064,582.36106 448,555.31589 448,528 c 0,-27.31589 5.38064,-54.36106 15.83398,-79.59766 10.45334,-25.23659 25.77264,-48.16521 45.0879,-67.48046 19.31525,-19.31526 42.24387,-34.63456 67.48046,-45.0879 C 601.63894,325.38064 628.68411,320 656,320 c 27.31589,0 54.36106,5.38064 79.59766,15.83398 25.23659,10.45334 48.16521,25.77264 67.48046,45.0879 19.31526,19.31525 34.63456,42.24387 45.0879,67.48046 C 858.61936,473.63894 864,500.68411 864,528 c 0,27.31589 -5.38064,54.36106 -15.83398,79.59766 -10.45334,25.23659 -25.77264,48.16521 -45.0879,67.48046 -19.31525,19.31526 -42.24387,34.63456 -67.48046,45.0879 -2.35668,0.97616 -4.74389,1.86257 -7.13086,2.75 -19.07278,35.18318 -37.90601,70.83569 -66.31055,99.24023 -27.02025,27.02024 -61.204,44.47146 -94.4043,63.07813 C 596.56252,892.35137 626.18876,896 656,896 c 48.32543,0 96.18125,-9.51838 140.82812,-28.01172 C 841.475,849.49494 882.0436,822.38608 916.21484,788.21484 950.38608,754.0436 977.49492,713.475 995.98828,668.82812 1014.4816,624.18125 1024,576.32543 1024,528 1024,479.67457 1014.4816,431.81875 995.98828,387.17188 977.49492,342.525 950.38608,301.9564 916.21484,267.78516 882.0436,233.61392 841.475,206.50506 796.82812,188.01172 752.18125,169.51838 704.32543,160 656,160 Z"
         transform="scale(1024)" />
      <g
         id="g1770">
        <path
           id="path2785"
           style="color:#000000;fill:#ffffff;fill-opacity:1;stroke-width:0.000976562;stroke-linecap:round;stroke-linejoin:round;-inkscape-stroke:none"
           d="m 368,160 c -48.32543,0 -96.18125,9.51838 -140.82812,28.01172 C 182.525,206.50506 141.9564,233.61392 107.78516,267.78516 73.613914,301.9564 46.505061,342.525 28.011719,387.17188 9.5183771,431.81875 0,479.67457 0,528 0,576.32543 9.5183771,624.18125 28.011719,668.82812 46.505061,713.475 73.613914,754.0436 107.78516,788.21484 141.9564,822.38608 182.525,849.49494 227.17188,867.98828 271.81875,886.48162 319.67457,896 368,896 c 48.32543,0 96.18125,-9.51838 140.82812,-28.01172 C 553.475,849.49494 594.0436,822.38608 628.21484,788.21484 662.38608,754.0436 689.49494,713.475 707.98828,668.82812 726.48162,624.18125 736,576.32543 736,528 c 0,-48.32543 -9.51838,-96.18125 -28.01172,-140.82812 -2.02671,-4.89293 -6.51059,-8.29206 -8.74219,-13.08399 C 685.18993,370.13841 670.66161,368 656,368 c -21.01303,0 -41.81501,4.13835 -61.22852,12.17969 -19.41351,8.04134 -37.04975,19.82513 -51.9082,34.68359 -1.04754,1.04755 -1.90799,2.23345 -2.87305,3.3418 6.54879,10.25173 15.49802,18.90413 20.17579,30.19726 C 570.61936,473.63894 576,500.68411 576,528 c 0,27.31589 -5.38064,54.36106 -15.83398,79.59766 -10.45334,25.23659 -25.77264,48.16521 -45.0879,67.48046 -19.31525,19.31526 -42.24387,34.63456 -67.48046,45.0879 C 422.36106,730.61936 395.31589,736 368,736 c -27.31589,0 -54.36106,-5.38064 -79.59766,-15.83398 -25.23659,-10.45334 -48.16521,-25.77264 -67.48046,-45.0879 -19.31526,-19.31525 -34.63456,-42.24387 -45.0879,-67.48046 C 165.38064,582.36106 160,555.31589 160,528 c 0,-27.31589 5.38064,-54.36106 15.83398,-79.59766 10.45334,-25.23659 25.77264,-48.16521 45.0879,-67.48046 18.77132,-18.77133 41.18151,-33.39368 65.58007,-43.81836 19.6443,-38.02224 44.98168,-72.89964 75.3418,-103.25977 22.95012,-22.95012 48.50361,-43.00358 76.00977,-59.94922 C 414.44868,169.27697 391.97037,160 368,160 Z"
           transform="scale(1024)" />
        <path
           id="path3539"
           style="fill:#ff6b6b;fill-opacity:1;stroke:none;stroke-width:256;stroke-linecap:round;stroke-linejoin:round;stroke-miterlimit:4;stroke-dasharray:none;stroke-opacity:1"
           d="m 511.35742,189.70312 c -43.13018,18.44141 -82.38571,44.89549 -115.57226,78.08204 -34.17124,34.17124 -61.2801,74.73983 -79.77344,119.38672 C 297.51838,431.81875 288,479.67457 288,528 c 0,48.32543 9.51838,96.18126 28.01172,140.82812 1.35283,3.26603 2.84855,6.46213 4.29297,9.6836 C 335.86062,683.42278 351.63139,688 368,688 c 21.01303,0 41.81501,-4.13835 61.22852,-12.17969 19.41351,-8.04134 37.04974,-19.82514 51.9082,-34.68359 0.0844,-0.0844 0.11302,-0.2103 0.19726,-0.29492 -6.79398,-10.51635 -12.68555,-21.62103 -17.5,-33.24414 C 453.38064,582.36106 448,555.31589 448,528 c 0,-27.31589 5.38064,-54.36106 15.83398,-79.59766 10.45334,-25.23659 25.77264,-48.16522 45.0879,-67.48046 19.31524,-19.31526 42.24387,-34.63456 67.48046,-45.0879 C 601.63894,325.38064 628.68411,320 656,320 c 2.45754,0 4.89366,0.27445 7.3457,0.36133 A 368,368 0 0 0 511.35742,189.70312 Z"
           transform="scale(1024)" />
        <path
           id="path3755"
           style="fill:#ff6b6b;fill-opacity:1;stroke:none;stroke-width:256;stroke-linecap:round;stroke-linejoin:round;stroke-miterlimit:4;stroke-dasharray:none;stroke-opacity:1"
           d="m 656,368 c -21.01303,0 -41.81501,4.13835 -61.22852,12.17969 -19.41351,8.04134 -37.04975,19.82513 -51.9082,34.68359 -1.04754,1.04755 -1.90799,2.23345 -2.87305,3.3418 6.54879,10.25173 15.49802,18.90413 20.17579,30.19726 C 570.61936,473.63894 576,500.68411 576,528 c 0,27.31589 -5.38064,54.36106 -15.83398,79.59766 -10.45334,25.23659 -25.77264,48.16522 -45.0879,67.48046 -19.31524,19.31526 -42.24387,34.63456 -67.48046,45.0879 -23.37181,9.68091 -48.31184,14.80224 -73.56446,15.5371 a 368,368 0 0 0 171.50586,114.54297 c 30.2696,-16.67771 58.14289,-37.49835 82.67578,-62.03125 34.17124,-34.17124 61.2801,-74.73983 79.77344,-119.38672 C 726.48162,624.18125 736,576.32543 736,528 c 0,-48.32543 -9.51838,-96.18126 -28.01172,-140.82812 -2.02671,-4.89293 -6.51059,-8.29206 -8.74219,-13.08399 C 685.18993,370.13841 670.66161,368 656,368 Z"
           transform="scale(1024)" />
      </g>
    </g>
    <g
       id="g1677"
       transform="matrix(9.765625e-4,0,0,9.765625e-4,320,0)">
      <rect
         style="fill:#393b41;fill-opacity:1;stroke-width:10240;stroke-linecap:round;stroke-linejoin:round"
         id="rect830"
         width="1048576"
         height="1048576"
         x="-2686976"
         y="0" />
      <g
         id="g1324"
         transform="translate(-32768,131072)">
        <rect
           style="fill:#fcfcfe;fill-opacity:1;stroke:none;stroke-width:48271.8;stroke-linecap:round;stroke-linejoin:round"
           id="rect1023"
           width="196608"
           height="524288"
           x="-2228224"
           y="327680"
           rx="143.94881"
           ry="202.57269" />
        <rect
           style="fill:#fcfcfe;fill-opacity:1;stroke:none;stroke-width:51200;stroke-linecap:round;stroke-linejoin:round"
           id="rect1135"
           width="327680"
           height="98304"
           x="-2359296"
           y="327680"
           rx="143.94881"
           ry="227.89427" />
        <rect
           style="fill:#fcfcfe;fill-opacity:1;stroke:none;stroke-width:51200;stroke-linecap:round;stroke-linejoin:round"
           id="rect1137"
           width="458752"
           height="98304"
           x="-2359296"
           y="753664"
           rx="143.94881"
           ry="227.89427" />
      </g>
      <circle
         style="fill:#ff6b6b;fill-opacity:1;stroke:none;stroke-width:64000;stroke-linecap:round;stroke-linejoin:round"
         id="path1348"
         cx="-2162688"
         cy="229376"
         r="163840" />
    </g>
  </g>
</svg>
