<?xml version="1.0" encoding="UTF-8" standalone="no"?>
<!-- Created with Inkscape (http://www.inkscape.org/) -->

<svg
   width="1024"
   height="1024"
   viewBox="0 0 1048576 1048576"
   version="1.1"
   id="svg830"
   inkscape:version="1.1.2 (0a00cf5339, 2022-02-04)"
   sodipodi:docname="icons.svg"
   xmlns:inkscape="http://www.inkscape.org/namespaces/inkscape"
   xmlns:sodipodi="http://sodipodi.sourceforge.net/DTD/sodipodi-0.dtd"
   xmlns="http://www.w3.org/2000/svg"
   xmlns:svg="http://www.w3.org/2000/svg">
  <sodipodi:namedview
     id="namedview832"
     pagecolor="#505050"
     bordercolor="#ffffff"
     borderopacity="1"
     inkscape:pageshadow="0"
     inkscape:pageopacity="0"
     inkscape:pagecheckerboard="1"
     inkscape:document-units="px"
     showgrid="true"
     units="px"
     scale-x="1024"
     inkscape:snap-bbox="true"
     inkscape:snap-nodes="true"
     inkscape:bbox-nodes="true"
     inkscape:zoom="0.16"
     inkscape:cx="434.375"
     inkscape:cy="634.375"
     inkscape:window-width="1280"
     inkscape:window-height="656"
     inkscape:window-x="0"
     inkscape:window-y="27"
     inkscape:window-maximized="1"
     inkscape:current-layer="layer1">
    <inkscape:grid
       type="xygrid"
       id="grid891"
       empspacing="4" />
  </sodipodi:namedview>
  <defs
     id="defs827" />
  <g
     inkscape:label="Layer 1"
     inkscape:groupmode="layer"
     id="layer1">
    <g
       id="g2761"
       transform="translate(-1441792)">
      <rect
         style="fill:#393b41;fill-opacity:1;stroke-width:10240;stroke-linecap:round;stroke-linejoin:round"
         id="rect2092"
         width="1048576"
         height="1048576"
         x="0"
         y="0" />
      <path
         fill="#ffffff"
         d="M 196608,819199.99 H 0 L 131072,229376 H 360448 L 524287.99,637726.72 685608.96,231905.28 917504,229376 1048576,819199.99 H 851967.99 L 786432,557056 688127.99,819199.99 H 360448 L 262144,557056 Z"
         id="path2"
         style="stroke-width:1024"
         sodipodi:nodetypes="cccccccccccccc" />
      <path
         fill="#ff6b6b"
         d="M 163840,98304 H 393216 L 524287.99,393216 655360,98304 H 884736 L 622591.99,622591.99 v 327680 H 425984 v -327680 z"
         id="path4"
         style="stroke-width:1024"
         sodipodi:nodetypes="cccccccccc" />
    </g>
    <path
       id="path2785"
       style="color:#000000;fill:#ffffff;stroke-width:0.000976562;stroke-linecap:round;stroke-linejoin:round;-inkscape-stroke:none;fill-opacity:1"
       d="M 368 160 C 319.67457 160 271.81875 169.51838 227.17188 188.01172 C 182.525 206.50506 141.9564 233.61392 107.78516 267.78516 C 73.613914 301.9564 46.505061 342.525 28.011719 387.17188 C 9.5183771 431.81875 0 479.67457 0 528 C 0 576.32543 9.5183771 624.18125 28.011719 668.82812 C 46.505061 713.475 73.613914 754.0436 107.78516 788.21484 C 141.9564 822.38608 182.525 849.49494 227.17188 867.98828 C 271.81875 886.48162 319.67457 896 368 896 C 416.32543 896 464.18125 886.48162 508.82812 867.98828 C 553.475 849.49494 594.0436 822.38608 628.21484 788.21484 C 662.38608 754.0436 689.49494 713.475 707.98828 668.82812 C 726.48162 624.18125 736 576.32543 736 528 C 736 479.67457 726.48162 431.81875 707.98828 387.17188 C 705.96157 382.27895 701.47769 378.87982 699.24609 374.08789 C 685.18993 370.13841 670.66161 368 656 368 C 634.98697 368 614.18499 372.13835 594.77148 380.17969 C 575.35797 388.22103 557.72173 400.00482 542.86328 414.86328 C 541.81574 415.91083 540.95529 417.09673 539.99023 418.20508 C 546.53902 428.45681 555.48825 437.10921 560.16602 448.40234 C 570.61936 473.63894 576 500.68411 576 528 C 576 555.31589 570.61936 582.36106 560.16602 607.59766 C 549.71268 632.83425 534.39338 655.76287 515.07812 675.07812 C 495.76287 694.39338 472.83425 709.71268 447.59766 720.16602 C 422.36106 730.61936 395.31589 736 368 736 C 340.68411 736 313.63894 730.61936 288.40234 720.16602 C 263.16575 709.71268 240.23713 694.39338 220.92188 675.07812 C 201.60662 655.76287 186.28732 632.83425 175.83398 607.59766 C 165.38064 582.36106 160 555.31589 160 528 C 160 500.68411 165.38064 473.63894 175.83398 448.40234 C 186.28732 423.16575 201.60662 400.23713 220.92188 380.92188 C 239.6932 362.15055 262.10339 347.5282 286.50195 337.10352 C 306.14625 299.08128 331.48363 264.20388 361.84375 233.84375 C 384.79387 210.89363 410.34736 190.84017 437.85352 173.89453 C 414.44868 169.27697 391.97037 160 368 160 z "
       transform="scale(1024)" />
    <path
       id="circle3005"
       style="color:#000000;fill:#fdffff;stroke-width:0.000976562;stroke-linecap:round;stroke-linejoin:round;-inkscape-stroke:none;fill-opacity:1"
       d="M 656 160 C 607.67457 160 559.81875 169.51838 515.17188 188.01172 C 470.525 206.50506 429.9564 233.61392 395.78516 267.78516 C 361.61392 301.9564 334.50506 342.525 316.01172 387.17188 C 297.51838 431.81875 288 479.67457 288 528 C 288 576.32543 297.51838 624.18125 316.01172 668.82812 C 317.36455 672.09414 318.86027 675.29025 320.30469 678.51172 C 335.86062 683.42278 351.63139 688 368 688 C 389.01303 688 409.81501 683.86165 429.22852 675.82031 C 448.64203 667.77897 466.27826 655.99517 481.13672 641.13672 C 481.22117 641.05227 481.24974 640.92642 481.33398 640.8418 C 474.54 630.32545 468.64843 619.22077 463.83398 607.59766 C 453.38064 582.36106 448 555.31589 448 528 C 448 500.68411 453.38064 473.63894 463.83398 448.40234 C 474.28732 423.16575 489.60662 400.23713 508.92188 380.92188 C 528.23713 361.60662 551.16575 346.28732 576.40234 335.83398 C 601.63894 325.38064 628.68411 320 656 320 C 683.31589 320 710.36106 325.38064 735.59766 335.83398 C 760.83425 346.28732 783.76287 361.60662 803.07812 380.92188 C 822.39338 400.23713 837.71268 423.16575 848.16602 448.40234 C 858.61936 473.63894 864 500.68411 864 528 C 864 555.31589 858.61936 582.36106 848.16602 607.59766 C 837.71268 632.83425 822.39338 655.76287 803.07812 675.07812 C 783.76287 694.39338 760.83425 709.71268 735.59766 720.16602 C 733.24098 721.14218 730.85377 722.02859 728.4668 722.91602 C 709.39402 758.0992 690.56079 793.75171 662.15625 822.15625 C 635.136 849.17649 600.95225 866.62771 567.75195 885.23438 C 596.56252 892.35137 626.18876 896 656 896 C 704.32543 896 752.18125 886.48162 796.82812 867.98828 C 841.475 849.49494 882.0436 822.38608 916.21484 788.21484 C 950.38608 754.0436 977.49492 713.475 995.98828 668.82812 C 1014.4816 624.18125 1024 576.32543 1024 528 C 1024 479.67457 1014.4816 431.81875 995.98828 387.17188 C 977.49492 342.525 950.38608 301.9564 916.21484 267.78516 C 882.0436 233.61392 841.475 206.50506 796.82812 188.01172 C 752.18125 169.51838 704.32543 160 656 160 z "
       transform="scale(1024)" />
    <path
       id="path3539"
       style="fill:#ff6b6b;fill-opacity:1;stroke:none;stroke-width:256;stroke-linecap:round;stroke-linejoin:round;stroke-miterlimit:4;stroke-dasharray:none;stroke-opacity:1"
       d="M 511.35742 189.70312 C 468.22724 208.14453 428.97171 234.59861 395.78516 267.78516 C 361.61392 301.9564 334.50506 342.52499 316.01172 387.17188 C 297.51838 431.81875 288 479.67457 288 528 C 288 576.32543 297.51838 624.18126 316.01172 668.82812 C 317.36455 672.09415 318.86027 675.29025 320.30469 678.51172 C 335.86062 683.42278 351.63139 688 368 688 C 389.01303 688 409.81501 683.86165 429.22852 675.82031 C 448.64203 667.77897 466.27826 655.99517 481.13672 641.13672 C 481.22117 641.05227 481.24974 640.92642 481.33398 640.8418 C 474.54 630.32545 468.64843 619.22077 463.83398 607.59766 C 453.38064 582.36106 448 555.31589 448 528 C 448 500.68411 453.38064 473.63894 463.83398 448.40234 C 474.28732 423.16575 489.60662 400.23712 508.92188 380.92188 C 528.23712 361.60662 551.16575 346.28732 576.40234 335.83398 C 601.63894 325.38064 628.68411 320 656 320 C 658.45754 320 660.89366 320.27445 663.3457 320.36133 A 368 368 0 0 0 511.35742 189.70312 z "
       transform="scale(1024)" />
    <path
       id="path3755"
       style="fill:#ff6b6b;fill-opacity:1;stroke:none;stroke-width:256;stroke-linecap:round;stroke-linejoin:round;stroke-miterlimit:4;stroke-dasharray:none;stroke-opacity:1"
       d="M 656 368 C 634.98697 368 614.18499 372.13835 594.77148 380.17969 C 575.35797 388.22103 557.72173 400.00482 542.86328 414.86328 C 541.81574 415.91083 540.95529 417.09673 539.99023 418.20508 C 546.53902 428.45681 555.48825 437.10921 560.16602 448.40234 C 570.61936 473.63894 576 500.68411 576 528 C 576 555.31589 570.61936 582.36106 560.16602 607.59766 C 549.71268 632.83425 534.39338 655.76288 515.07812 675.07812 C 495.76288 694.39338 472.83425 709.71268 447.59766 720.16602 C 424.22585 729.84693 399.28582 734.96826 374.0332 735.70312 A 368 368 0 0 0 545.53906 850.24609 C 575.80866 833.56838 603.68195 812.74774 628.21484 788.21484 C 662.38608 754.0436 689.49494 713.47501 707.98828 668.82812 C 726.48162 624.18125 736 576.32543 736 528 C 736 479.67457 726.48162 431.81874 707.98828 387.17188 C 705.96157 382.27895 701.47769 378.87982 699.24609 374.08789 C 685.18993 370.13841 670.66161 368 656 368 z "
       transform="scale(1024)" />
  </g>
</svg>
