<svg width="21" height="21" viewBox="0 0 21 21" fill="none" xmlns="http://www.w3.org/2000/svg">
<path fill-rule="evenodd" clip-rule="evenodd" d="M0.783447 13.5227C0.783447 14.1348 1.02658 14.7217 1.45935 15.1545C1.89213 15.5873 2.4791 15.8304 3.09114 15.8304H5.39883V14.292H3.09114C2.88713 14.292 2.69147 14.2109 2.54721 14.0667C2.40295 13.9224 2.32191 13.7267 2.32191 13.5227V2.75349C2.32191 2.54948 2.40295 2.35382 2.54721 2.20956C2.69147 2.06531 2.88713 1.98426 3.09114 1.98426H13.8604C14.0644 1.98426 14.26 2.06531 14.4043 2.20956C14.5486 2.35382 14.6296 2.54948 14.6296 2.75349V5.06119H7.70652C7.09449 5.06119 6.50752 5.30432 6.07474 5.73709C5.64196 6.16987 5.39883 6.75684 5.39883 7.36888V18.1381C5.39883 18.7501 5.64196 19.3371 6.07474 19.7699C6.50752 20.2027 7.09449 20.4458 7.70652 20.4458H18.4758C19.0878 20.4458 19.6748 20.2027 20.1075 19.7699C20.5403 19.3371 20.7834 18.7501 20.7834 18.1381V7.36888C20.7834 6.75684 20.5403 6.16987 20.1075 5.73709C19.6748 5.30432 19.0878 5.06119 18.4758 5.06119H16.1681V2.75349C16.1681 2.14146 15.9249 1.55448 15.4922 1.12171C15.0594 0.688932 14.4724 0.445801 13.8604 0.445801H3.09114C2.4791 0.445801 1.89213 0.688932 1.45935 1.12171C1.02658 1.55448 0.783447 2.14146 0.783447 2.75349V13.5227ZM6.93729 7.36888C6.93729 7.16487 7.01834 6.96921 7.1626 6.82495C7.30685 6.68069 7.50251 6.59965 7.70652 6.59965H18.4758C18.6798 6.59965 18.8754 6.68069 19.0197 6.82495C19.1639 6.96921 19.245 7.16487 19.245 7.36888V18.1381C19.245 18.3421 19.1639 18.5378 19.0197 18.682C18.8754 18.8263 18.6798 18.9073 18.4758 18.9073H7.70652C7.50251 18.9073 7.30685 18.8263 7.1626 18.682C7.01834 18.5378 6.93729 18.3421 6.93729 18.1381V7.36888Z" fill="#272932"/>
</svg>
