<svg width="43" height="23" viewBox="0 0 43 23" fill="none" xmlns="http://www.w3.org/2000/svg">
<path d="M17.6957 22.9654H14.2717L13.7597 12.2134C13.6957 10.8054 13.6637 9.45073 13.6637 8.14939C13.6637 6.46406 13.6957 5.13072 13.7597 4.14939L10.4957 19.0614H7.2637L3.7757 4.14939C3.86104 5.23739 3.9037 6.91206 3.9037 9.1734C3.9037 10.5387 3.89304 11.5627 3.8717 12.2454L3.4237 22.9654H0.0957031L1.3437 0.885392H5.7917L8.9597 15.6694L11.9677 0.885392H16.4477L17.6957 22.9654Z" fill="white"/>
<path d="M23.0717 22.9654H19.3597V18.7574V14.5494L11.9677 0.885392H16.4477L21.2797 11.3494L26.5597 0.885392H30.4637L23.0717 14.5174V22.9654Z" fill="#FF6B6B"/>
<path d="M42.8182 22.9554H39.3942L38.8822 12.2034C38.8182 10.7954 38.7862 9.4407 38.7862 8.13937C38.7862 6.45404 38.8182 5.1207 38.8822 4.13937L35.6182 19.0514H32.3862L28.8982 4.13937C28.9835 5.22737 29.0262 6.90204 29.0262 9.16337C29.0262 10.5287 29.0156 11.5527 28.9942 12.2354L28.5462 22.9554H25.2182L26.5453 0.875366L30.9142 0.875371L34.0822 15.6594L37.0902 0.875371H41.5702L42.8182 22.9554Z" fill="white"/>
</svg>
