<?xml version="1.0" encoding="UTF-8" standalone="no"?>
<!-- Created with Inkscape (http://www.inkscape.org/) -->

<svg
   width="1024"
   height="1024"
   viewBox="0 0 1024 1024"
   version="1.1"
   id="svg896"
   xmlns="http://www.w3.org/2000/svg"
   xmlns:svg="http://www.w3.org/2000/svg">
  <defs
     id="defs893" />
  <g
     id="layer1">
    <circle
       style="fill:#020202;fill-opacity:1;stroke-width:10;stroke-linecap:round;stroke-linejoin:round"
       id="path12231"
       cx="567.91602"
       cy="401.67157"
       r="76.98938" />
    <path
       style="fill:#020202;fill-opacity:1;stroke-width:11.1794;stroke-linecap:round;stroke-linejoin:round"
       d="M 511.9947,0 C 474.1436,0.03011842 440.7248,20.340893 429.546,50.109375 408.7348,25.912998 370.2995,18.117477 334.7208,30.876736 299.1637,43.693683 274.7936,74.069946 274.5961,105.81944 246.6618,90.113001 207.8444,95.773557 178.8289,119.78472 149.8539,143.84166 137.4708,180.61936 148.2778,210.52084 116.5901,205.20015 82.0743,223.63417 63.1226,256 44.2238,288.39545 45.3208,327.13939 65.8291,351.5868 34.2102,357.29217 8.158,386.2753 1.555,423.09202 -4.9874,459.91934 9.4588,495.95632 37.1956,512 9.4588,528.04368 -4.9874,564.08066 1.555,600.90798 8.158,637.7247 34.2102,666.70783 65.8291,672.4132 45.3208,696.86061 44.2238,735.60455 63.1226,768 c 18.9333,32.3776 53.4425,50.83575 85.1377,45.53819 C 352,768 512,832 586.7508,962.46178 c 16.94,32.26801 61.1062,45.47742 102.5178,30.6615 35.5663,-12.79638 59.9603,-43.16181 60.1828,-74.91494 27.9315,15.66877 66.7149,9.99849 95.7092,-13.99306 28.9923,-24.04121 41.402,-60.81853 30.6159,-90.73264 31.6712,5.28662 66.1512,-13.14367 85.0904,-45.48264 18.9193,-32.38538 17.8479,-71.13616 -2.6433,-95.60243 31.592,-5.73275 57.6114,-34.7016 64.2109,-71.48959 6.5592,-36.79536 -7.8375,-72.82256 -35.5282,-88.90798 27.6907,-16.08542 42.0874,-52.11262 35.5282,-88.90798 -6.5995,-36.78799 -32.6189,-65.75684 -64.2109,-71.48959 C 978.7148,327.13616 979.7862,288.38538 960.8669,256 941.9281,223.66046 907.448,205.22942 875.7765,210.51562 886.5617,180.60188 874.1521,143.82556 845.1606,119.78472 816.1663,95.793169 777.3829,90.122897 749.4514,105.79167 749.2289,74.03854 724.8349,43.673111 689.2686,30.876736 653.7166,18.128175 615.3095,25.902598 594.4874,50.0625 583.2834,20.299801 549.8465,0.00788716 511.9947,0 Z"
       id="path2467" />
    <ellipse
       style="fill:#ee988a;fill-opacity:1;stroke-width:13.3333;stroke-linecap:round;stroke-linejoin:round"
       id="ellipse14225"
       cx="752.8916"
       cy="672"
       rx="79.108353"
       ry="128" />
    <circle
       style="fill:#f9b6a6;fill-opacity:1;stroke-width:11;stroke-linecap:round;stroke-linejoin:round"
       id="circle2171"
       cx="-448"
       cy="704"
       r="320"
       transform="scale(-1,1)" />
    <path
       id="path13050"
       style="fill:#87E1EB;fill-opacity:1;stroke-width:7.14522;stroke-linecap:round;stroke-linejoin:round"
       d="M 754.6358,1.8437662 C 723.1445,1.7204843 690.8477,18.516488 680.5562,54.493289 c -14.9696,52.329891 9.8937,72.764271 -5.7232,86.612571 -35.6119,31.57897 -57.1601,-33.00174 -68.5925,-39.60221 -11.4323,-6.600475 -27.3733,-11.993212 -40.8549,-8.208605 -13.4815,3.784614 -23.1999,13.633925 -31.2775,27.535435 l -82.7604,143.34639 a 393.43661,393.43661 0 0 1 85.7321,9.92156 l 26.0206,-45.07127 c 0,0 13.1995,-22.86437 36.0642,-9.66343 22.8647,13.20095 9.6654,36.06623 9.6654,36.06623 l -19.8271,34.34125 a 393.43661,393.43661 0 0 1 70.9818,35.4639 l 17.4377,-30.20294 c 0,0 13.2016,-22.86437 36.0663,-9.66342 22.8647,13.20094 9.6635,36.06622 9.6635,36.06622 l -20.2935,35.14771 A 393.43661,393.43661 0 0 1 760.0128,416 l 77.9377,-134.9897 c 7.9809,-13.44995 5.0701,-15.85281 1.6068,-29.42049 -3.4631,-13.56767 -16.1031,-24.67706 -27.5354,-31.27754 -11.4323,-6.60048 -78.1366,7.02815 -68.5944,-39.60221 4.1845,-20.44877 36.4835,-7.88143 74.3177,-47.01036 C 855.5794,94.570757 832.8198,34.159654 794.9363,12.287622 783.0978,5.4526128 768.95,1.8998033 754.6358,1.8437662 Z" />
    <path
       id="path14021"
       style="fill:#ee988a;fill-opacity:1;stroke-width:11;stroke-linecap:round;stroke-linejoin:round"
       d="M 654.0488,459.26172 A 352,352 0 0 1 704,640 352,352 0 0 1 352,992 352,352 0 0 1 303.0059,988.49609 320,320 0 0 0 448,1024 320,320 0 0 0 768,704 320,320 0 0 0 654.0488,459.26172 Z" />
    <circle
       style="fill:#87E1EB;fill-opacity:1;stroke:#000000;stroke-width:40;stroke-linecap:round;stroke-linejoin:round;stroke-miterlimit:4;stroke-dasharray:none;stroke-opacity:1"
       id="path14267"
       cx="256"
       cy="640"
       r="96" />
    <circle
       style="fill:#87E1EB;fill-opacity:1;stroke:#000000;stroke-width:40;stroke-linecap:round;stroke-linejoin:round;stroke-miterlimit:4;stroke-dasharray:none;stroke-opacity:1"
       id="circle14393"
       cx="544"
       cy="640"
       r="96" />
    <path
       style="fill:none;stroke:#000000;stroke-width:40;stroke-linecap:butt;stroke-linejoin:miter;stroke-miterlimit:4;stroke-dasharray:none;stroke-opacity:1"
       d="m 352,624 c 41.1044,-55.16792 68.662,-28.24941 96,0"
       id="path14450" />
    <path
       style="fill:none;stroke:#000000;stroke-width:40;stroke-linecap:round;stroke-linejoin:miter;stroke-miterlimit:4;stroke-dasharray:none;stroke-opacity:1"
       d="m 640,640 96,-96"
       id="path14870" />
  </g>
</svg>
